<svg width="24px" height="5px" viewBox="0 0 24 5" version="1.1" xmlns="http://www.w3.org/2000/svg" xmlns:xlink="http://www.w3.org/1999/xlink">
    <!-- Generator: Sketch 45.1 (43504) - http://www.bohemiancoding.com/sketch -->
    <desc>Created with Sketch.</desc>
    <defs></defs>
    <g id="Symbols" stroke="none" stroke-width="1" fill="none" fill-rule="evenodd" fill-opacity="0.727270154">
        <g id="Dashboard-tile-" transform="translate(-241.000000, -36.000000)" fill="#D0D7DD">
            <path d="M261.539805,41 C260.142032,41 259.007714,39.881 259.007714,38.5 C259.007714,37.119 260.142032,36 261.539805,36 C262.938623,36 264.071895,37.119 264.071895,38.5 C264.071895,39.881 262.938623,41 261.539805,41 L261.539805,41 Z M252.571895,41 C251.182486,41 250.056532,39.881 250.056532,38.5 C250.056532,37.119 251.182486,36 252.571895,36 C253.961305,36 255.087259,37.119 255.087259,38.5 C255.087259,39.881 253.961305,41 252.571895,41 L252.571895,41 Z M243.603986,41 C242.205168,41 241.071895,39.881 241.071895,38.5 C241.071895,37.119 242.205168,36 243.603986,36 C245.001759,36 246.136077,37.119 246.136077,38.5 C246.136077,39.881 245.001759,41 243.603986,41 L243.603986,41 Z" id="options" transform="translate(252.571895, 38.500000) scale(-1, 1) translate(-252.571895, -38.500000) "></path>
        </g>
    </g>
</svg>